<svg xmlns="http://www.w3.org/2000/svg" xmlns:xlink="http://www.w3.org/1999/xlink" width="500" zoomAndPan="magnify" viewBox="0 0 375 374.999991" height="500" preserveAspectRatio="xMidYMid meet" version="1.0"><defs><g/><clipPath id="708e2c5708"><path d="M 58.941406 145.835938 L 316.191406 145.835938 L 316.191406 190 L 58.941406 190 Z M 58.941406 145.835938 " clip-rule="nonzero"/></clipPath></defs><g clip-path="url(#708e2c5708)"><path fill="#ff5757" d="M 71.339844 169.839844 C 73.179688 168.5625 74.136719 167.363281 74.136719 166.082031 C 74.136719 164.5625 73.179688 163.28125 71.976562 162.324219 C 71.339844 161.683594 68.859375 160.804688 70.460938 158.324219 C 84.054688 161.765625 127.238281 145.929688 164.824219 145.929688 C 188.417969 145.929688 211.050781 149.929688 233.761719 159.285156 C 248.078125 159.285156 303.335938 165.203125 316.050781 186.636719 C 315.414062 187.273438 314.53125 188.792969 314.214844 189.753906 L 311.09375 189.753906 C 311.414062 188.792969 312.054688 187.59375 312.613281 186.636719 C 304.535156 174.238281 246.796875 164.242188 230.960938 164.242188 C 208.25 154.007812 185.296875 150.886719 164.824219 150.886719 C 125.078125 150.886719 97.167969 163.921875 75.417969 162.402344 C 75.417969 163.921875 77.894531 165.523438 77.894531 168 C 77.894531 170.160156 76.9375 172.320312 75.417969 174.238281 C 70.460938 174.160156 62.941406 178.878906 62.941406 189.675781 L 58.941406 189.675781 C 58.941406 184.394531 58.941406 175.757812 71.339844 169.839844 Z M 71.339844 169.839844 " fill-opacity="1" fill-rule="nonzero"/></g><g fill="#ff5757" fill-opacity="1"><g transform="translate(88.703231, 218.736314)"><g><path d="M 20.023438 0.683594 C 21.964844 0.683594 24.023438 -0.113281 25.546875 -1.410156 L 24.632812 -4.53125 C 24.023438 -3.960938 23.375 -3.578125 22.765625 -3.578125 C 22.117188 -3.578125 21.851562 -4.074219 21.777344 -4.910156 L 21.320312 -8.222656 C 21.203125 -9.707031 20.710938 -10.851562 19.53125 -11.382812 L 19.53125 -11.421875 C 23.792969 -12.523438 26.457031 -15.800781 26.457031 -19.910156 C 26.457031 -24.515625 23.148438 -27.105469 17.246094 -27.105469 L 4.605469 -27.105469 L 0.304688 0 L 6.816406 0 L 8.453125 -10.277344 L 12.601562 -10.277344 C 14.007812 -10.277344 14.808594 -9.25 15 -7.765625 L 15.53125 -3.539062 C 15.761719 -1.027344 17.285156 0.683594 20.023438 0.683594 Z M 9.136719 -14.695312 L 10.355469 -22.308594 L 16.105469 -22.308594 C 18.578125 -22.308594 19.871094 -21.167969 19.871094 -19.261719 C 19.871094 -16.484375 17.816406 -14.695312 14.847656 -14.695312 Z M 9.136719 -14.695312 "/></g></g></g><g fill="#ff5757" fill-opacity="1"><g transform="translate(115.613427, 218.736314)"><g><path d="M 0.304688 0 L 18.957031 0 L 19.757812 -5.214844 L 7.421875 -5.214844 L 8.414062 -11.613281 L 18.882812 -11.613281 L 19.605469 -16.179688 L 9.136719 -16.179688 L 10.050781 -21.929688 L 22.042969 -21.929688 L 22.878906 -27.105469 L 4.605469 -27.105469 Z M 0.304688 0 "/></g></g></g><g fill="#ff5757" fill-opacity="1"><g transform="translate(136.890373, 218.736314)"><g><path d="M 0.304688 0 L 6.359375 0 L 9.441406 -19.53125 L 9.515625 -19.53125 L 17.167969 0 L 24.972656 0 L 29.277344 -27.105469 L 23.222656 -27.105469 L 20.101562 -7.574219 L 20.023438 -7.574219 L 12.410156 -27.105469 L 4.605469 -27.105469 Z M 0.304688 0 "/></g></g></g><g fill="#ff5757" fill-opacity="1"><g transform="translate(165.246943, 218.736314)"><g><path d="M 6.699219 0 L 13.25 0 L 16.636719 -21.546875 L 24.363281 -21.546875 L 25.242188 -27.105469 L 3.3125 -27.105469 L 2.398438 -21.546875 L 10.125 -21.546875 Z M 6.699219 0 "/></g></g></g><g fill="#000000" fill-opacity="1"><g transform="translate(188.277443, 218.736314)"><g><path d="M 6.089844 0 L 14.3125 0 L 22.691406 -20.40625 L 22.765625 -20.40625 L 24.632812 0 L 32.855469 0 L 44.65625 -27.105469 L 37.992188 -27.105469 L 29.734375 -6.472656 L 29.65625 -6.472656 L 27.714844 -27.105469 L 19.757812 -27.105469 L 11.34375 -6.472656 L 11.269531 -6.472656 L 9.515625 -27.105469 L 2.894531 -27.105469 Z M 6.089844 0 "/></g></g></g><g fill="#000000" fill-opacity="1"><g transform="translate(230.260388, 218.736314)"><g><path d="M 0.304688 0 L 6.816406 0 L 11.117188 -27.105469 L 4.605469 -27.105469 Z M 0.304688 0 "/></g></g></g><g fill="#000000" fill-opacity="1"><g transform="translate(240.461136, 218.736314)"><g><path d="M 11.648438 0.835938 C 18.503906 0.835938 23.71875 -2.589844 23.71875 -8.414062 C 23.71875 -12.21875 21.320312 -14.582031 16.027344 -15.953125 L 13.25 -16.75 C 10.699219 -17.472656 9.515625 -18.386719 9.515625 -19.871094 C 9.515625 -21.738281 11.117188 -23.148438 13.589844 -23.148438 C 16.445312 -23.148438 18.046875 -21.355469 18.082031 -18.882812 L 23.984375 -20.175781 C 23.984375 -24.859375 19.949219 -27.945312 13.933594 -27.945312 C 7.726562 -27.945312 3.160156 -24.554688 3.160156 -18.882812 C 3.160156 -15.152344 5.328125 -12.945312 10.277344 -11.6875 L 13.132812 -10.851562 C 15.988281 -10.050781 17.359375 -9.0625 17.359375 -7.460938 C 17.359375 -5.328125 15.265625 -4.035156 12.257812 -4.035156 C 8.640625 -4.035156 6.472656 -6.128906 6.511719 -9.328125 L 0.457031 -8.335938 C 0.457031 -2.777344 4.988281 0.835938 11.648438 0.835938 Z M 11.648438 0.835938 "/></g></g></g><g fill="#000000" fill-opacity="1"><g transform="translate(265.011458, 218.736314)"><g><path d="M 0.304688 0 L 18.957031 0 L 19.757812 -5.214844 L 7.421875 -5.214844 L 8.414062 -11.613281 L 18.882812 -11.613281 L 19.605469 -16.179688 L 9.136719 -16.179688 L 10.050781 -21.929688 L 22.042969 -21.929688 L 22.878906 -27.105469 L 4.605469 -27.105469 Z M 0.304688 0 "/></g></g></g></svg>