<svg xmlns="http://www.w3.org/2000/svg" xmlns:xlink="http://www.w3.org/1999/xlink" width="500" zoomAndPan="magnify" viewBox="0 0 375 374.999991" height="500" preserveAspectRatio="xMidYMid meet" version="1.0"><defs><clipPath id="7a236d22d9"><path d="M 7.367188 156.714844 L 367.367188 156.714844 L 367.367188 218.214844 L 7.367188 218.214844 Z M 7.367188 156.714844 " clip-rule="nonzero"/></clipPath></defs><g clip-path="url(#7a236d22d9)"><path fill="#ffffff" d="M 24.738281 190.355469 C 27.3125 188.5625 28.660156 186.882812 28.660156 185.089844 C 28.660156 182.960938 27.3125 181.167969 25.632812 179.824219 C 24.738281 178.925781 21.261719 177.695312 23.503906 174.21875 C 42.554688 179.039062 103.0625 156.851562 155.730469 156.851562 C 188.785156 156.851562 220.496094 162.453125 252.320312 175.566406 C 272.378906 175.566406 349.808594 183.855469 367.625 213.886719 C 366.730469 214.785156 365.496094 216.914062 365.046875 218.257812 L 360.679688 218.257812 C 361.125 216.914062 362.023438 215.234375 362.808594 213.886719 C 351.488281 196.519531 270.585938 182.511719 248.398438 182.511719 C 216.574219 168.167969 184.414062 163.800781 155.730469 163.800781 C 100.039062 163.800781 60.929688 182.0625 30.453125 179.933594 C 30.453125 182.0625 33.925781 184.304688 33.925781 187.777344 C 33.925781 190.804688 32.582031 193.828125 30.453125 196.519531 C 23.503906 196.40625 12.96875 203.019531 12.96875 218.144531 L 7.367188 218.144531 C 7.367188 210.75 7.367188 198.648438 24.738281 190.355469 Z M 24.738281 190.355469 " fill-opacity="1" fill-rule="nonzero"/></g></svg>